<svg xmlns="http://www.w3.org/2000/svg" xmlns:xlink="http://www.w3.org/1999/xlink" width="500" zoomAndPan="magnify" viewBox="0 0 375 374.999991" height="500" preserveAspectRatio="xMidYMid meet" version="1.0"><defs><clipPath id="39c78c6776"><path d="M 32.285156 6.757812 L 342.785156 6.757812 L 342.785156 368.257812 L 32.285156 368.257812 Z M 32.285156 6.757812 " clip-rule="nonzero"/></clipPath></defs><g clip-path="url(#39c78c6776)"><path fill="#ffffff" d="M 146.445312 168.722656 L 187.496094 110.46875 L 215.789062 150.621094 L 197.007812 177.269531 L 187.496094 163.769531 L 165.226562 195.375 L 165.230469 195.382812 L 146.453125 222.035156 L 146.445312 222.023438 L 134.234375 239.355469 L 187.496094 314.9375 L 240.757812 239.355469 L 228.546875 222.023438 L 187.496094 280.28125 L 159.195312 240.117188 L 177.972656 213.464844 L 187.496094 226.980469 L 209.765625 195.375 L 209.75 195.351562 L 228.53125 168.703125 L 228.546875 168.722656 L 342.683594 6.75 L 342.683594 60.050781 L 247.328125 195.375 L 259.539062 212.703125 L 259.539062 212.699219 L 278.320312 239.351562 L 187.496094 368.238281 L 96.671875 239.355469 L 127.664062 195.375 L 32.304688 60.050781 L 32.304688 6.75 Z M 32.304688 94.890625 L 32.433594 94.890625 L 102.710938 194.621094 L 83.929688 221.273438 L 32.304688 148.011719 Z M 342.683594 94.890625 L 342.683594 148.011719 L 291.0625 221.269531 L 272.28125 194.617188 L 342.558594 94.890625 Z M 342.683594 94.890625 " fill-opacity="1" fill-rule="evenodd"/></g></svg>